<?xml version="1.0" standalone="no"?>
<!DOCTYPE svg PUBLIC "-//W3C//DTD SVG 20010904//EN"
 "http://www.w3.org/TR/2001/REC-SVG-20010904/DTD/svg10.dtd">
<svg version="1.0" xmlns="http://www.w3.org/2000/svg"
 width="512.000000pt" height="512.000000pt" viewBox="0 0 512.000000 512.000000"
 preserveAspectRatio="xMidYMid meet">
<metadata>
Created by potrace 1.14, written by Peter Selinger 2001-2017
</metadata>
<g transform="translate(0.000000,512.000000) scale(0.100000,-0.100000)"
fill="#000000" stroke="none">
<path d="M2513 4831 c-3 -12 -13 -21 -23 -21 -10 0 -20 -9 -23 -20 -3 -11 -12
-20 -20 -20 -9 0 -19 -9 -22 -20 -3 -11 -12 -20 -20 -20 -7 0 -15 -9 -18 -20
-3 -11 -11 -19 -18 -18 -7 2 -14 -3 -15 -9 -1 -7 -2 -17 -3 -23 0 -5 -7 -7
-15 -4 -9 3 -17 -3 -21 -15 -4 -12 -15 -21 -27 -21 -17 0 -18 -2 -8 -15 7 -8
9 -16 4 -17 -5 0 -13 -2 -19 -3 -5 -2 -16 -3 -23 -4 -7 0 -11 -5 -7 -11 3 -5
12 -7 20 -3 8 3 15 0 15 -7 0 -6 -4 -9 -9 -5 -9 5 -38 -35 -32 -43 2 -2 -1 -7
-5 -10 -4 -4 -4 -1 0 6 4 7 2 12 -6 12 -9 0 -9 3 2 10 9 6 10 10 3 10 -15 0
-23 -12 -25 -44 -2 -18 -8 -26 -21 -26 -13 0 -17 -5 -13 -16 4 -11 -1 -18 -14
-21 -11 -3 -21 -13 -22 -22 0 -9 -2 -21 -2 -28 -2 -18 -26 -41 -26 -25 0 7 5
12 11 12 5 0 7 5 4 10 -3 6 -10 10 -14 10 -8 0 -9 -7 -12 -55 -1 -17 -7 -24
-18 -23 -8 2 -16 -3 -17 -9 -1 -7 -2 -18 -3 -24 0 -5 -7 -7 -13 -3 -10 6 -10
4 0 -7 13 -14 16 -30 5 -28 -21 3 -34 -2 -32 -13 4 -35 -3 -56 -20 -61 -14 -3
-19 -14 -20 -41 -3 -59 -4 -65 -13 -60 -5 3 -5 10 -2 16 4 6 1 9 -6 6 -9 -3
-14 -21 -14 -51 0 -26 -4 -47 -8 -47 -5 0 -6 -4 -3 -10 3 -5 2 -10 -4 -10 -5
0 -11 6 -14 13 -4 11 -7 -30 -11 -138 -1 -39 -5 -51 -19 -53 -12 -3 -16 -10
-13 -28 3 -14 0 -24 -7 -24 -7 0 -6 -4 3 -10 8 -5 11 -10 5 -10 -5 0 -3 -5 5
-10 8 -5 10 -10 4 -10 -7 0 -11 -35 -10 -106 1 -90 3 -104 17 -101 11 3 15 -4
16 -27 2 -119 3 -128 21 -133 12 -3 18 -13 17 -31 -1 -29 12 -55 24 -47 4 2 8
-2 8 -10 0 -10 -4 -12 -12 -5 -9 8 -15 5 -19 -7 -4 -10 -4 -14 0 -11 15 16 41
-12 39 -42 -1 -23 2 -30 17 -30 12 0 18 -7 18 -23 0 -12 9 -28 20 -35 11 -7
20 -22 20 -33 0 -12 8 -28 18 -35 9 -7 18 -17 18 -23 1 -6 2 -17 3 -25 0 -8
10 -17 21 -21 11 -3 19 -9 19 -13 -4 -28 3 -62 11 -57 6 4 8 11 5 16 -4 5 -2
9 3 9 6 0 13 -16 16 -35 4 -19 11 -35 17 -35 6 0 7 6 3 13 -5 8 -4 9 4 2 5 -5
12 -19 14 -30 2 -11 11 -19 21 -19 9 1 17 -5 17 -13 0 -8 -5 -11 -12 -8 -7 4
-4 0 6 -9 10 -8 23 -13 29 -9 6 3 7 1 3 -5 -4 -7 -3 -12 1 -12 5 0 9 -10 10
-21 1 -12 7 -27 14 -33 8 -8 9 -5 4 14 -8 28 -6 27 19 -14 10 -16 13 -25 7
-22 -7 5 -9 1 -5 -9 5 -11 10 -13 19 -5 9 8 14 6 19 -6 3 -9 4 -20 0 -25 -3
-5 4 -9 15 -9 12 0 21 -4 21 -10 0 -5 8 -7 18 -3 14 5 13 3 -3 -11 l-20 -17
20 3 c14 2 21 -4 23 -20 2 -12 8 -20 13 -16 6 3 16 0 24 -6 8 -6 20 -9 27 -5
7 4 5 0 -4 -8 -26 -20 -22 -26 12 -22 17 2 30 -1 30 -6 0 -6 5 -7 12 -3 7 4 8
3 4 -4 -4 -6 -13 -9 -21 -5 -8 3 -15 1 -15 -4 0 -5 6 -10 13 -11 6 0 21 -3 32
-5 14 -3 22 2 25 17 3 12 12 21 19 21 8 0 17 8 20 18 4 10 10 18 14 18 21 -2
26 0 21 13 -6 14 22 30 37 20 5 -3 8 5 6 18 -1 17 3 23 18 23 13 0 19 6 17 18
-2 11 4 17 17 17 13 0 21 8 23 23 2 15 9 21 21 19 10 -2 17 2 16 10 -3 27 2
37 16 32 16 -7 36 32 28 54 -3 6 0 12 7 12 6 0 9 -4 5 -9 -3 -5 -1 -12 5 -16
6 -4 10 4 10 19 0 25 23 56 41 56 6 0 9 8 7 18 -2 12 3 16 16 14 13 -3 17 1
13 11 -6 15 18 32 37 28 5 -1 4 5 -4 13 -10 13 -10 16 0 16 7 0 10 8 7 20 -5
18 7 25 35 21 4 0 5 8 3 19 -2 11 0 22 5 25 5 3 7 14 5 25 -2 12 0 18 6 15 5
-4 7 -10 5 -14 -3 -4 -1 -13 5 -21 6 -11 9 -7 10 15 1 17 1 34 0 38 -1 5 7 11
17 14 13 3 19 14 20 39 2 42 8 55 25 48 9 -3 13 11 15 48 1 29 7 57 13 63 7 7
9 2 5 -18 -3 -16 -1 -25 5 -22 5 4 7 11 4 16 -4 5 -2 9 3 9 6 0 10 6 9 13 -2
64 4 109 16 104 13 -5 15 10 20 128 1 39 7 76 11 84 5 8 5 12 0 9 -5 -4 -9 40
-9 100 -1 89 -3 106 -15 104 -12 -3 -12 0 2 14 13 13 14 21 5 41 -6 13 -15 22
-21 20 -7 -3 -10 11 -7 41 2 33 0 43 -9 37 -9 -6 -9 -3 -1 13 7 14 8 23 1 27
-5 3 -10 11 -10 16 0 6 5 7 12 3 7 -5 8 -3 3 5 -5 9 -10 10 -18 2 -7 -7 -7
-14 1 -24 9 -10 9 -14 -1 -14 -12 0 -18 29 -20 95 -1 14 -7 22 -19 22 -14 0
-18 8 -18 40 0 22 -3 39 -7 39 -17 -3 -33 1 -32 9 4 22 -2 62 -8 61 -21 -3
-31 3 -29 18 0 10 -6 18 -14 18 -8 0 -15 5 -16 10 0 6 -4 17 -8 26 -4 9 -6 22
-4 30 2 7 -4 13 -12 14 -8 0 -14 8 -14 18 2 14 -13 22 -37 19 -4 -1 -5 12 -4
28 2 29 -10 48 -30 49 -5 0 -13 10 -17 23 -3 13 -6 17 -7 11 -1 -7 -6 -13 -12
-13 -5 0 -8 4 -4 9 3 5 1 12 -4 16 -6 3 -7 13 -4 21 5 13 1 15 -15 9 -19 -5
-22 -2 -22 18 0 17 -5 24 -17 23 -11 0 -18 6 -17 16 1 10 -8 19 -22 22 -15 4
-24 14 -24 25 0 15 -5 18 -22 14 -13 -3 -19 -1 -13 4 14 11 18 36 5 28 -5 -3
-10 -1 -10 5 0 6 -4 9 -9 5 -6 -3 -15 3 -21 14 -6 11 -17 18 -24 15 -10 -4
-16 3 -18 18 -2 16 -9 22 -21 20 -13 -2 -17 2 -15 15 2 14 -5 19 -30 21 -27 3
-35 -1 -39 -17z m397 -351 c0 -5 -2 -10 -4 -10 -3 0 -8 5 -11 10 -3 6 -1 10 4
10 6 0 11 -4 11 -10z m220 -370 c0 -5 -2 -10 -4 -10 -3 0 -8 5 -11 10 -3 6 -1
10 4 10 6 0 11 -4 11 -10z m79 -233 c8 -10 7 -14 -2 -14 -8 0 -14 6 -14 14 0
7 1 13 2 13 2 0 8 -6 14 -13z m-1309 -191 c0 -2 -8 -10 -17 -17 -16 -13 -17
-12 -4 4 13 16 21 21 21 13z m-5 -174 c-3 -3 -11 0 -18 7 -9 10 -8 11 6 5 10
-3 15 -9 12 -12z m1310 -71 c3 -5 2 -12 -3 -15 -5 -3 -9 1 -9 9 0 17 3 19 12
6z m-70 -231 c3 -6 -1 -7 -9 -4 -18 7 -21 14 -7 14 6 0 13 -4 16 -10z m-745
-564 c0 -3 -4 -8 -10 -11 -5 -3 -10 -1 -10 4 0 6 5 11 10 11 6 0 10 -2 10 -4z"/>
<path d="M2740 4696 c0 -2 8 -10 18 -17 15 -13 16 -12 3 4 -13 16 -21 21 -21
13z"/>
<path d="M3013 4342 c1 -14 5 -18 11 -12 7 7 6 14 -1 21 -9 9 -12 7 -10 -9z"/>
<path d="M1867 3860 c7 -10 8 -21 3 -30 -10 -16 -4 -30 13 -30 7 0 6 4 -3 10
-8 5 -10 10 -3 10 15 0 11 27 -7 43 -12 10 -12 9 -3 -3z"/>
<path d="M463 3517 c0 -9 5 -13 11 -10 7 4 8 2 1 -5 -5 -6 -52 -12 -103 -14
-52 -2 -96 -6 -99 -11 -2 -4 -14 -2 -26 4 -17 9 -19 9 -11 0 13 -14 57 -24 49
-11 -3 6 1 7 10 3 26 -9 1 -19 -58 -22 -48 -3 -97 -7 -122 -10 -5 -1 -3 -6 5
-11 8 -5 13 -10 10 -11 -19 -3 -88 -10 -103 -10 -9 0 -15 -4 -12 -10 4 -5 2
-9 -2 -9 -8 0 -9 -31 -2 -107 2 -18 7 -33 11 -33 5 0 6 15 3 33 -4 22 -2 28 4
17 5 -8 8 -17 5 -21 -2 -4 -1 -10 3 -12 5 -3 8 -39 7 -81 0 -42 4 -76 9 -76 5
0 7 6 4 14 -3 8 0 16 6 19 8 3 12 -8 11 -34 0 -22 3 -39 7 -39 4 0 5 -9 2 -20
-3 -13 0 -20 8 -20 11 0 11 -2 -1 -10 -13 -8 -13 -11 -1 -22 10 -10 12 -10 7
0 -4 6 -2 12 3 12 6 0 12 -4 12 -10 1 -5 3 -19 4 -30 1 -11 3 -29 4 -41 1 -14
6 -19 16 -15 11 4 15 -2 17 -22 2 -40 3 -46 11 -59 4 -6 1 -14 -5 -16 -7 -3
-2 -6 11 -6 16 -1 21 -5 18 -16 -4 -8 -2 -17 4 -20 5 -4 7 -11 4 -16 -4 -5 1
-9 10 -9 10 0 13 5 9 13 -4 6 -3 9 1 4 9 -7 10 -13 16 -74 2 -17 7 -29 11 -27
4 3 8 0 8 -6 0 -6 4 -8 10 -5 6 4 10 -5 10 -19 0 -14 5 -26 10 -26 6 0 10 -5
10 -11 0 -5 -5 -7 -12 -3 -7 5 -8 3 -3 -6 6 -10 11 -9 22 6 11 14 14 15 13 4
-6 -41 1 -60 20 -60 12 0 20 -6 19 -12 -3 -26 1 -38 14 -35 6 1 11 -4 10 -10
-2 -7 2 -13 7 -13 6 0 10 -8 10 -19 0 -10 9 -21 20 -24 12 -3 18 -11 15 -19
-5 -13 3 -16 52 -20 6 -1 10 -10 8 -20 -2 -11 2 -18 11 -18 9 0 14 -7 12 -17
-2 -10 3 -18 12 -18 8 0 15 -8 15 -17 0 -9 4 -20 8 -24 4 -4 7 -2 7 5 0 19 23
8 26 -13 1 -10 6 -21 10 -24 4 -4 5 1 1 10 -3 10 0 19 9 22 8 3 14 0 13 -7 -4
-30 1 -38 22 -32 17 6 20 3 17 -17 -2 -12 2 -22 7 -21 6 1 17 3 25 5 10 2 15
-4 14 -20 -1 -12 1 -20 5 -17 3 4 6 12 6 17 0 6 6 13 13 16 7 2 12 0 11 -5 -4
-23 2 -35 16 -29 8 3 15 1 15 -3 0 -5 9 -7 20 -4 16 4 20 0 21 -18 0 -13 3
-18 6 -12 3 9 10 10 23 3 10 -6 37 -11 59 -12 22 -1 46 -5 53 -9 7 -5 -3 -6
-25 -4 -26 3 -36 2 -32 -6 4 -6 13 -8 21 -5 7 3 15 2 18 -2 2 -4 17 -7 33 -6
15 1 34 -4 42 -10 11 -8 13 -8 8 1 -12 19 24 8 40 -13 14 -18 15 -18 9 6 -3
14 -3 19 0 12 4 -8 10 -10 17 -3 8 6 17 4 26 -6 12 -13 11 -14 -8 -8 -11 3
-21 2 -21 -3 0 -6 81 -10 197 -11 151 -1 198 1 204 11 7 10 9 10 9 1 0 -19 57
-16 64 3 3 8 10 13 15 10 5 -4 12 0 14 6 4 10 6 10 6 1 1 -9 8 -10 27 -3 18 7
23 7 18 -2 -5 -7 -3 -8 7 -2 8 4 37 10 64 11 88 5 113 8 119 14 4 3 -12 5 -33
5 -22 -1 -38 1 -35 5 2 3 25 7 51 8 70 3 109 7 122 15 6 4 11 2 11 -4 0 -6 5
-8 11 -4 8 4 7 9 -2 15 -7 4 -16 6 -20 3 -4 -2 -10 0 -13 5 -3 5 10 8 29 6 20
-1 38 1 40 5 2 4 20 6 40 5 35 -1 47 9 23 18 -9 4 -8 6 3 6 13 1 15 12 13 59
-1 31 -3 59 -4 62 -1 3 -2 20 -2 38 0 17 -4 32 -9 32 -6 0 -8 -4 -4 -9 3 -5 0
-13 -6 -17 -7 -4 -9 -3 -5 4 3 6 2 13 -2 16 -5 3 -8 32 -8 66 1 33 -2 60 -6
60 -4 0 -5 9 -3 20 2 11 -1 20 -7 20 -5 0 -8 -7 -4 -15 3 -9 0 -15 -8 -15 -9
0 -14 11 -14 33 1 64 -2 87 -13 87 -5 0 -7 -6 -3 -12 5 -10 4 -10 -6 -1 -6 6
-13 34 -14 62 -1 54 -4 58 -25 39 -11 -11 -13 -10 -9 2 7 20 -9 63 -21 55 -5
-3 -12 -1 -16 4 -3 6 4 8 15 6 14 -3 20 0 17 8 -2 7 -12 11 -21 10 -14 -1 -16
4 -12 23 4 14 2 24 -4 24 -6 0 -8 5 -4 12 5 8 2 9 -10 5 -9 -4 -14 -3 -11 2 3
5 1 12 -4 16 -5 3 -8 15 -6 26 3 17 0 19 -18 13 -21 -6 -21 -5 -3 8 15 12 16
17 6 23 -9 5 -11 4 -6 -3 4 -7 2 -12 -3 -12 -6 0 -12 5 -12 10 -1 6 -3 15 -4
20 -1 6 -3 15 -4 21 0 6 -8 9 -16 5 -10 -4 -15 1 -15 14 0 11 1 22 3 23 5 8
-26 36 -34 31 -5 -3 -9 6 -9 20 0 19 -5 26 -20 26 -15 0 -20 7 -21 28 0 15 -3
22 -5 15 -3 -7 -12 -9 -20 -6 -12 4 -12 8 -2 21 10 12 10 14 1 8 -7 -4 -13 -2
-13 3 0 6 -8 11 -17 11 -16 1 -16 2 2 16 20 16 20 16 -2 9 -19 -5 -23 -2 -23
14 0 11 -4 23 -10 26 -5 3 -7 0 -4 -8 3 -8 1 -18 -5 -22 -7 -3 -11 2 -11 14 0
14 -6 21 -19 21 -10 0 -21 9 -24 20 -3 11 -13 20 -22 20 -9 0 -14 4 -10 9 7
13 -26 30 -44 23 -10 -3 -11 2 -6 19 7 23 7 23 -8 4 l-16 -20 2 20 c2 15 -3
19 -20 17 -14 -2 -23 2 -23 10 0 9 -3 9 -10 -2 -5 -8 -10 -10 -10 -4 0 5 6 16
13 23 10 11 8 13 -10 8 -13 -3 -23 -1 -23 3 0 4 -9 6 -20 3 -15 -4 -20 0 -20
16 0 11 -4 21 -10 21 -5 0 -7 -6 -4 -14 3 -8 1 -17 -4 -20 -5 -3 -9 2 -8 12 1
12 -8 18 -33 20 -19 2 -40 11 -47 20 -7 10 -28 18 -51 18 -123 5 -161 9 -150
16 6 4 29 5 50 3 41 -4 44 6 4 12 -12 2 -139 5 -282 6 -253 2 -260 1 -257 -18
4 -17 2 -17 -15 4 -15 18 -20 20 -20 8z m67 -17 c0 -5 -4 -10 -10 -10 -5 0
-10 5 -10 10 0 6 5 10 10 10 6 0 10 -4 10 -10z m-363 -75 c4 -4 3 -5 -4 -2 -6
4 -13 2 -15 -5 -3 -8 -6 -6 -10 4 -7 17 15 19 29 3z m-127 -39 c0 -3 -4 -8
-10 -11 -5 -3 -10 -1 -10 4 0 6 5 11 10 11 6 0 10 -2 10 -4z m1487 -1318 c-3
-8 -6 -5 -6 6 -1 11 2 17 5 13 3 -3 4 -12 1 -19z"/>
<path d="M4070 3521 c0 -7 -4 -9 -10 -6 -6 3 -7 -1 -4 -9 5 -13 -2 -16 -35
-17 -23 -1 -55 -2 -73 -3 -28 -1 -56 -26 -28 -26 6 0 8 5 4 12 -4 7 -3 8 5 4
19 -12 2 -26 -29 -24 -15 1 -36 -4 -46 -12 -14 -12 -16 -12 -10 -1 6 9 5 12
-5 9 -8 -3 -13 -12 -11 -22 2 -9 -2 -16 -8 -16 -5 0 -10 6 -10 13 0 9 -2 9 -9
-1 -4 -8 -11 -13 -15 -13 -26 4 -37 -1 -33 -13 3 -8 0 -17 -8 -20 -9 -3 -15 3
-18 17 l-4 22 -2 -22 c-1 -16 -7 -23 -20 -23 -11 0 -23 -4 -26 -10 -3 -5 -1
-10 6 -10 7 0 9 -3 5 -7 -8 -8 -13 -9 -42 -12 -10 -1 -14 -7 -10 -16 3 -8 1
-15 -4 -15 -5 0 -11 8 -13 18 -4 16 -5 16 -6 0 0 -10 -6 -18 -12 -18 -5 0 -7
-6 -3 -12 5 -9 2 -9 -9 1 -15 12 -17 11 -17 -8 0 -14 -6 -21 -20 -21 -13 0
-20 -7 -20 -20 0 -14 -6 -20 -17 -18 -10 2 -18 -3 -19 -9 -1 -7 -2 -18 -3 -23
0 -6 -8 -10 -17 -8 -11 2 -18 -5 -21 -21 -5 -32 -12 -39 -23 -21 -7 11 -10 11
-11 3 -1 -7 -3 -17 -4 -23 -1 -5 -3 -19 -4 -30 0 -11 -6 -20 -12 -20 -5 0 -8
4 -4 9 3 5 1 13 -5 16 -6 4 -10 3 -9 -2 1 -4 0 -11 -1 -15 -4 -13 -7 -28 -9
-39 0 -6 -8 -9 -16 -5 -14 5 -19 -9 -18 -51 0 -6 -5 -14 -13 -17 -9 -3 -11 1
-8 12 5 14 4 15 -5 2 -6 -8 -11 -27 -11 -41 0 -19 -5 -26 -17 -25 -11 0 -18
-6 -18 -16 0 -9 -3 -20 -7 -23 -4 -4 -4 -13 -2 -20 3 -7 0 -16 -7 -21 -8 -5
-10 -3 -4 7 8 12 6 12 -8 1 -9 -8 -16 -17 -15 -20 0 -4 0 -25 -1 -47 -2 -35
-3 -37 -11 -17 -5 12 -11 22 -12 22 -4 0 -7 -27 -12 -79 -1 -14 -8 -26 -16
-29 -13 -3 -12 -2 0 7 13 9 13 11 -1 11 -11 0 -16 -10 -17 -37 -1 -21 -6 -39
-12 -41 -5 -2 -10 -8 -10 -13 0 -6 5 -7 10 -4 6 3 10 2 10 -3 0 -5 -9 -12 -20
-15 -16 -4 -20 -14 -20 -46 0 -23 -4 -41 -10 -41 -5 0 -14 -10 -21 -21 -8 -15
-8 -19 0 -15 6 4 11 0 11 -9 0 -9 -4 -14 -8 -11 -4 2 -8 -5 -9 -17 -2 -80 -8
-127 -14 -127 -5 0 -6 16 -5 35 2 19 0 33 -4 30 -5 -3 -7 -14 -5 -25 2 -11 1
-20 -3 -20 -4 0 -7 -27 -7 -60 0 -44 3 -59 12 -56 16 7 27 -11 12 -20 -8 -5
-9 -3 -4 6 5 9 4 11 -4 6 -21 -13 -2 -23 39 -22 23 1 44 -2 47 -7 3 -4 11 -6
19 -3 7 3 16 0 20 -6 4 -6 3 -8 -2 -5 -6 3 -16 2 -24 -4 -16 -9 -1 -11 103
-13 26 -1 47 -4 47 -8 0 -4 8 -5 18 -2 14 5 15 4 2 -5 -8 -6 -22 -8 -30 -6 -8
2 -21 1 -27 -3 -13 -8 7 -11 129 -15 36 -1 64 -5 61 -9 -7 -12 12 -9 24 3 8 8
13 8 18 -1 5 -8 11 -8 21 1 9 7 14 8 13 3 -6 -35 -4 -35 266 -32 146 2 265 7
264 12 -1 16 20 22 86 21 55 0 65 3 65 18 0 17 8 19 63 20 29 0 33 7 16 24 -9
9 -8 11 4 9 9 -1 20 -6 24 -11 4 -4 2 -5 -6 0 -10 6 -12 4 -7 -4 9 -14 21 -6
21 12 0 7 15 12 37 11 30 0 35 2 26 13 -13 16 -22 17 -12 1 5 -7 3 -8 -5 -4
-17 11 -7 19 26 22 15 2 35 13 45 26 10 13 18 20 18 15 0 -4 14 0 30 8 18 9
28 21 24 27 -5 7 0 9 14 6 22 -6 40 17 19 26 -7 2 -1 5 11 5 15 1 26 9 29 21
3 11 14 20 25 20 12 0 18 6 16 17 -2 10 5 19 20 22 13 3 23 9 23 14 -2 24 1
29 14 23 10 -4 15 1 15 15 0 12 8 23 20 26 11 3 20 10 20 15 0 6 -7 8 -15 4
-8 -3 -15 -1 -15 4 0 6 9 10 19 10 11 0 23 5 27 12 4 7 3 8 -4 4 -8 -5 -10 -1
-5 10 6 15 7 15 20 -2 11 -14 14 -15 13 -4 -4 29 0 60 8 59 21 -4 29 3 28 23
-1 14 5 23 14 23 10 0 16 12 18 33 3 29 11 37 34 33 5 0 7 2 7 7 -1 4 -1 22 0
40 1 26 5 32 24 33 l22 1 -22 6 c-17 5 -20 11 -13 22 6 10 10 11 10 3 0 -7 5
-13 10 -13 6 0 10 16 10 35 0 34 1 35 23 25 20 -10 20 -10 -3 11 -16 15 -19
20 -7 16 9 -4 17 -3 18 1 0 4 3 16 5 27 3 11 5 30 6 43 0 15 5 21 14 18 7 -3
16 -1 19 4 4 6 1 10 -6 10 -8 0 -8 4 -1 13 12 14 12 15 12 57 0 21 4 28 14 24
17 -6 22 14 21 92 0 41 4 61 12 61 14 0 13 -19 -2 -29 -6 -5 -5 -8 3 -8 8 0
10 -5 6 -12 -4 -7 -3 -9 2 -5 9 9 11 21 17 139 5 90 1 96 -66 99 -26 2 -47 6
-47 11 0 4 5 8 10 8 6 0 10 5 10 12 0 6 -9 3 -21 -8 -13 -12 -19 -14 -17 -5 2
7 -3 16 -11 19 -10 3 -11 0 -5 -9 6 -12 5 -12 -9 -1 -9 8 -41 14 -71 15 -35 1
-52 5 -46 11 18 18 10 22 -47 23 -106 2 -105 2 -100 17 4 9 0 13 -11 11 -9 -1
-23 2 -29 8 -9 6 -13 6 -13 -2 0 -7 -5 -9 -11 -5 -20 12 -69 13 -62 0 5 -8 3
-8 -8 0 -16 12 -413 13 -425 1 -4 -4 -13 -2 -21 4 -10 9 -13 8 -13 0z m72 -14
c-13 -15 -72 -22 -72 -8 0 6 13 8 30 6 16 -2 32 1 35 6 4 5 9 9 12 9 3 0 1 -6
-5 -13z m508 -9 c0 -4 -13 -8 -30 -8 -16 0 -30 3 -30 8 0 4 14 7 30 7 17 1 30
-3 30 -7z m385 -398 c-3 -5 -12 -10 -18 -10 -7 0 -6 4 3 10 19 12 23 12 15 0z
m-160 -379 c3 -5 2 -12 -3 -15 -5 -3 -9 1 -9 9 0 17 3 19 12 6z m-35 -81 c0
-5 -2 -10 -4 -10 -3 0 -8 5 -11 10 -3 6 -1 10 4 10 6 0 11 -4 11 -10z m-1733
-175 c0 -8 -4 -12 -9 -9 -4 3 -8 9 -8 15 0 5 4 9 8 9 5 0 9 -7 9 -15z m1087
-356 c-3 -5 -10 -7 -15 -3 -5 3 -7 10 -3 15 3 5 10 7 15 3 5 -3 7 -10 3 -15z
m-141 -33 c6 -15 -17 -16 -30 -1 -4 4 -2 5 5 1 6 -4 12 -2 12 3 0 15 7 14 13
-3z m-48 -6 c3 -5 1 -10 -4 -10 -6 0 -11 5 -11 10 0 6 2 10 4 10 3 0 8 -4 11
-10z"/>
<path d="M435 3510 c-3 -5 -1 -10 4 -10 6 0 11 5 11 10 0 6 -2 10 -4 10 -3 0
-8 -4 -11 -10z"/>
<path d="M1197 3479 c7 -7 15 -10 18 -7 3 3 -2 9 -12 12 -14 6 -15 5 -6 -5z"/>
<path d="M4834 3475 c-18 -14 -18 -14 4 -8 12 3 22 9 22 14 0 12 -3 11 -26 -6z"/>
<path d="M5101 3354 c0 -11 3 -14 6 -6 3 7 2 16 -1 19 -3 4 -6 -2 -5 -13z"/>
<path d="M2015 3080 c3 -5 11 -10 16 -10 6 0 7 5 4 10 -3 6 -11 10 -16 10 -6
0 -7 -4 -4 -10z"/>
<path d="M2058 3013 c6 -2 9 -10 6 -15 -4 -7 -2 -8 5 -4 13 9 5 26 -12 25 -9
0 -8 -2 1 -6z"/>
<path d="M2090 2941 c0 -6 4 -13 10 -16 6 -3 7 1 4 9 -7 18 -14 21 -14 7z"/>
<path d="M2901 2826 c-8 -10 -9 -16 -1 -21 5 -3 10 -5 11 -3 4 18 7 38 4 38
-1 0 -8 -6 -14 -14z"/>
<path d="M460 2364 c0 -8 5 -12 10 -9 6 4 8 11 5 16 -9 14 -15 11 -15 -7z"/>
<path d="M2068 2233 c-7 -25 6 -53 14 -31 3 7 2 22 -2 32 -6 19 -7 19 -12 -1z"/>
<path d="M4453 2215 c0 -8 4 -12 9 -9 5 3 6 10 3 15 -9 13 -12 11 -12 -6z"/>
<path d="M775 2140 c-3 -5 -1 -10 4 -10 6 0 11 5 11 10 0 6 -2 10 -4 10 -3 0
-8 -4 -11 -10z"/>
<path d="M1570 2058 c0 -3 9 -6 20 -5 11 1 20 5 20 9 0 3 -9 6 -20 5 -11 -1
-20 -5 -20 -9z"/>
<path d="M3476 2061 c-3 -4 4 -7 14 -8 11 -1 22 2 24 6 3 4 -4 7 -14 8 -11 1
-22 -2 -24 -6z"/>
<path d="M1138 1779 c-6 -4 -18 -5 -26 -1 -12 4 -14 1 -9 -12 5 -12 3 -16 -5
-13 -7 2 -22 1 -34 -4 -14 -5 -21 -3 -21 6 0 7 8 12 18 10 10 -2 21 0 23 4 3
4 -7 7 -22 6 -15 0 -28 -8 -30 -16 -2 -11 -15 -15 -50 -14 -58 1 -72 -3 -72
-21 0 -8 -5 -14 -11 -14 -5 0 -8 4 -4 9 3 5 0 13 -6 17 -8 4 -9 3 -5 -5 9 -13
-29 -30 -61 -26 -16 1 -20 -3 -18 -16 3 -16 -3 -19 -38 -20 -23 -1 -46 -1 -51
0 -5 1 -4 -5 4 -13 7 -9 10 -17 6 -17 -9 -2 -44 -6 -62 -8 -10 -1 -14 -7 -10
-16 3 -8 2 -15 -2 -16 -24 -2 -42 -8 -59 -19 -16 -10 -16 -11 0 -6 9 3 17 2
17 -2 0 -11 -52 -32 -64 -26 -6 3 -2 -2 9 -11 20 -17 20 -17 -2 -10 -14 4 -23
2 -23 -4 0 -6 -5 -10 -11 -9 -6 2 -14 -3 -16 -10 -3 -8 1 -10 14 -6 16 6 16 5
-2 -9 -10 -8 -25 -13 -32 -10 -7 3 -17 -6 -23 -22 -5 -14 -14 -24 -19 -20 -5
3 -12 1 -15 -4 -4 -5 2 -12 11 -14 17 -4 17 -5 1 -6 -10 0 -18 -5 -18 -10 0
-5 -10 -7 -22 -5 -21 4 -21 4 2 -7 25 -12 25 -12 3 -16 -17 -3 -23 -12 -24
-31 0 -15 -3 -22 -5 -15 -8 19 -33 3 -29 -18 3 -17 -7 -23 -35 -21 -3 0 -5
-15 -5 -34 1 -23 -3 -34 -12 -34 -15 0 -33 -38 -26 -56 2 -6 -3 -14 -13 -18
-13 -5 -14 -4 -6 7 12 14 6 27 -12 27 -6 0 -5 -4 3 -9 9 -6 10 -11 2 -15 -6
-4 -11 -20 -11 -37 0 -16 -4 -29 -10 -29 -5 0 -10 5 -10 11 0 5 -5 7 -11 3 -8
-5 -8 -9 1 -14 9 -5 9 -9 1 -14 -6 -4 -11 -18 -11 -31 0 -33 -10 -55 -25 -55
-7 0 -11 -10 -9 -26 2 -20 -1 -25 -14 -22 -17 5 -20 -6 -25 -94 -2 -20 -5 -24
-14 -16 -15 12 -14 14 -18 -37 -2 -22 -4 -40 -5 -40 -1 0 -3 -17 -4 -37 -3
-43 -11 -56 -20 -33 -3 9 -2 14 2 11 5 -3 9 1 9 9 0 8 -5 16 -11 18 -10 4 -12
-17 -17 -170 -1 -17 -4 -19 -14 -10 -10 9 -10 16 -1 27 10 13 9 13 -7 1 -13
-10 -15 -17 -6 -27 6 -8 7 -14 2 -14 -11 0 -10 -61 1 -78 4 -7 1 -12 -6 -12
-33 -1 21 -20 57 -21 22 0 49 -5 60 -10 19 -9 19 -9 -2 -5 -13 2 -20 -1 -17
-8 2 -6 26 -12 52 -12 26 -1 62 -2 80 -3 21 -1 32 -6 32 -15 0 -8 5 -18 12
-22 7 -5 9 0 6 14 -4 14 -2 19 8 15 7 -3 12 -10 11 -16 -1 -6 19 -11 53 -12
41 0 55 -4 55 -15 0 -8 8 -16 18 -18 9 -2 17 1 17 7 0 6 -7 7 -17 4 -11 -4
-14 -3 -9 6 5 7 16 9 28 5 12 -3 18 -2 15 3 -4 5 0 10 8 10 8 0 16 -4 16 -9 1
-4 2 -13 3 -19 1 -9 63 -12 221 -11 260 0 248 0 240 11 -3 5 0 13 6 17 7 4 9
3 6 -3 -4 -6 -1 -16 7 -22 10 -9 17 -6 30 14 13 20 21 24 30 16 7 -6 17 -7 22
-3 4 4 3 0 -4 -9 -9 -12 -9 -16 3 -16 7 0 14 3 13 6 -2 23 6 28 42 25 37 -2
45 3 41 29 0 4 4 7 10 7 6 0 8 -10 5 -22 -3 -13 -3 -17 0 -10 3 6 10 10 14 7
5 -3 12 0 16 6 5 8 3 9 -6 4 -9 -6 -11 -4 -6 4 5 7 14 10 22 7 8 -3 14 -2 14
3 0 4 14 7 31 6 20 -1 35 5 43 17 8 10 27 20 42 22 16 1 28 8 27 14 -3 13 40
27 60 19 8 -3 14 1 14 8 0 7 -6 11 -14 8 -7 -3 -13 0 -13 6 0 10 7 12 50 15 8
1 16 9 18 19 2 9 12 17 23 17 11 0 19 6 17 13 -2 7 2 14 7 16 36 11 46 23 34
38 -11 12 -10 14 2 13 28 -4 39 0 39 15 0 8 7 15 15 15 8 0 15 5 15 11 0 5 5
7 10 4 6 -3 10 -1 10 4 0 6 -5 11 -11 11 -5 0 -8 4 -4 10 3 5 12 7 20 3 10 -3
15 2 15 16 0 19 10 26 33 22 4 0 8 8 8 19 2 33 4 38 12 47 5 4 7 3 5 -2 -2 -6
1 -10 7 -10 10 0 11 3 13 43 2 19 6 22 24 17 17 -6 20 -4 15 9 -8 19 1 46 15
46 5 0 6 -6 2 -12 -5 -9 -2 -8 10 1 12 10 14 16 5 21 -8 6 -8 9 0 14 6 4 9 12
5 17 -3 6 3 13 15 16 19 5 28 37 22 76 -2 12 17 8 22 -5 4 -8 6 -6 7 5 2 9 4
22 5 27 1 6 3 21 4 35 0 14 4 24 9 24 17 -3 32 2 32 10 0 5 -10 7 -22 5 -20
-4 -20 -3 -4 4 19 8 28 29 27 65 0 9 8 17 17 17 14 0 17 9 17 43 -1 46 12 120
14 80 0 -13 5 -23 9 -23 7 0 12 39 16 123 0 15 5 27 9 27 5 0 5 5 1 12 -4 6
-3 8 3 5 6 -4 9 -20 7 -36 -2 -17 0 -32 4 -35 4 -2 8 28 10 67 6 119 8 132 20
132 7 0 12 5 12 10 0 6 -6 10 -12 10 -17 0 -28 28 -14 37 6 4 2 7 -9 7 -74 -2
-113 4 -109 16 3 7 0 16 -7 21 -7 4 -10 3 -7 -2 3 -5 -1 -15 -9 -23 -13 -12
-14 -11 -8 8 5 18 3 22 -12 21 -46 -5 -83 1 -81 13 2 7 -7 12 -22 12 -14 0
-24 -5 -23 -11 1 -6 -4 -11 -11 -11 -7 0 -13 7 -12 15 1 12 -15 16 -83 17 -64
1 -86 5 -89 16 -3 11 -2 11 7 -1 8 -11 11 -12 11 -2 0 7 5 10 12 6 6 -4 8 -3
4 4 -3 6 -16 9 -28 7 -12 -3 -26 1 -30 8 -4 6 -8 8 -8 2 0 -10 -83 -11 -99 0
-5 3 -12 1 -16 -4 -3 -6 -15 -7 -28 -3 -12 5 -56 7 -97 6 -101 -2 -102 -3 -95
-13 3 -5 1 -13 -5 -16 -6 -4 -10 -3 -9 2 5 28 -24 40 -53 22z m22 -17 c0 -5
-7 -9 -15 -9 -8 0 -12 4 -9 9 3 4 9 8 15 8 5 0 9 -4 9 -8z m395 -2 c3 -5 1
-10 -4 -10 -6 0 -11 5 -11 10 0 6 2 10 4 10 3 0 8 -4 11 -10z m-605 -36 c0 -8
-19 -13 -24 -6 -3 5 1 9 9 9 8 0 15 -2 15 -3z m855 -4 c-3 -5 -10 -10 -16 -10
-5 0 -9 5 -9 10 0 6 7 10 16 10 8 0 12 -4 9 -10z m-1120 -109 c3 -5 2 -12 -3
-15 -5 -3 -9 1 -9 9 0 17 3 19 12 6z m-525 -685 c0 -11 -19 -15 -25 -6 -3 5 1
10 9 10 9 0 16 -2 16 -4z m1190 -486 c0 -5 -2 -10 -4 -10 -3 0 -8 5 -11 10 -3
6 -1 10 4 10 6 0 11 -4 11 -10z m-68 -27 c-6 -2 -9 -10 -6 -15 4 -7 2 -8 -5
-4 -13 9 -5 26 12 25 9 0 8 -2 -1 -6z"/>
<path d="M3555 1780 c-4 -6 -10 -8 -14 -6 -4 3 -13 0 -21 -6 -12 -8 -12 -9 2
-4 11 3 15 1 12 -7 -3 -8 -28 -12 -72 -12 -83 0 -109 -4 -90 -16 10 -7 9 -9
-4 -9 -9 0 -18 7 -20 17 -3 14 -5 14 -18 -2 -9 -11 -10 -16 -2 -11 6 4 12 3
12 -2 0 -8 -24 -11 -90 -14 -8 0 -21 -5 -27 -11 -9 -6 -13 -6 -13 1 0 15 -33
8 -38 -9 -3 -11 -1 -11 7 1 9 13 11 13 11 -1 0 -15 -36 -22 -102 -21 -20 1
-24 -14 -6 -20 7 -3 5 -7 -6 -11 -10 -4 -15 -3 -11 3 3 6 2 10 -3 10 -6 0 -13
-8 -17 -17 -10 -24 -12 -103 -3 -109 4 -2 5 -13 3 -24 -2 -12 0 -18 6 -15 5 4
7 10 5 14 -3 4 -1 13 5 21 6 10 9 -6 10 -50 2 -61 3 -74 9 -92 6 -20 5 -34 -5
-41 -5 -5 0 -5 13 -2 20 6 22 3 23 -32 1 -21 0 -45 -1 -53 -1 -10 3 -9 14 5
17 23 17 23 20 -26 1 -20 8 -45 16 -55 9 -10 10 -15 3 -10 -8 4 -13 1 -13 -9
0 -9 5 -13 10 -10 19 12 31 -5 19 -27 -6 -11 -7 -18 -2 -15 5 3 15 2 23 -4 10
-6 11 -9 3 -9 -7 0 -13 -7 -13 -16 0 -11 5 -14 16 -10 12 4 14 1 9 -14 -4 -11
-2 -20 3 -20 6 0 13 -7 16 -16 3 -8 2 -12 -4 -9 -6 3 -10 1 -10 -4 0 -6 7 -11
15 -11 18 0 30 -26 34 -74 1 -4 7 -6 14 -3 13 5 15 1 18 -47 1 -16 6 -23 15
-19 8 3 15 0 15 -6 3 -26 4 -30 11 -36 4 -4 4 -14 1 -23 -5 -15 -4 -15 8 0 13
17 15 16 26 -7 7 -16 8 -25 1 -25 -6 0 -6 -6 2 -15 6 -8 17 -13 23 -12 7 1 12
-7 12 -18 0 -13 6 -19 18 -17 15 3 19 -3 16 -24 -2 -14 26 -23 33 -11 5 7 8 1
8 -15 0 -21 5 -28 20 -28 13 0 20 -7 20 -20 0 -14 7 -20 21 -20 15 0 19 -5 15
-15 -6 -16 3 -23 41 -28 12 -2 26 -7 30 -12 5 -4 3 -6 -2 -2 -6 3 -17 2 -25
-4 -16 -9 -16 -9 43 -13 15 -1 21 -7 19 -19 -3 -15 19 -23 51 -18 4 1 3 -7 -2
-17 -9 -17 -7 -18 14 -14 14 2 25 0 25 -5 0 -5 16 -8 35 -7 29 3 33 1 22 -10
-9 -10 -14 -11 -20 -2 -6 7 -7 6 -5 -3 3 -9 17 -15 35 -15 17 -1 35 -4 38 -8
4 -4 15 -3 25 2 12 6 17 5 17 -5 0 -8 -4 -12 -8 -9 -4 2 -10 1 -13 -4 -3 -5 0
-9 7 -9 7 0 46 -4 87 -8 41 -4 87 -8 101 -8 17 0 26 -6 25 -16 -1 -12 16 -15
94 -15 52 -1 101 -5 109 -10 8 -5 12 -5 9 0 -4 5 44 10 110 10 195 3 252 6
247 15 -3 4 -20 6 -38 4 -25 -3 -28 -2 -14 6 9 6 21 8 26 4 5 -3 12 1 14 7 4
10 6 10 6 1 1 -7 8 -10 17 -6 15 6 47 8 144 12 27 1 31 4 20 11 -11 7 -11 10
-2 10 7 0 10 5 6 11 -4 8 0 8 15 0 11 -7 21 -14 21 -17 0 -3 -4 -2 -10 1 -5 3
-10 1 -10 -5 0 -7 6 -10 13 -8 6 3 12 11 12 19 0 10 12 14 41 12 33 -1 41 2
40 15 -1 12 7 17 29 18 17 0 36 4 43 8 7 4 12 2 12 -5 0 -10 3 -10 12 -1 13
13 18 152 6 152 -3 0 -4 9 -1 20 3 12 0 20 -6 20 -7 0 -9 -4 -6 -10 3 -6 2
-10 -3 -10 -9 0 -11 16 -15 103 -2 29 -6 37 -17 34 -9 -2 -16 3 -17 12 -3 60
-8 91 -16 91 -5 0 -3 7 4 16 12 15 11 16 -11 9 -23 -7 -24 -6 -11 9 12 14 12
17 1 14 -10 -2 -14 7 -13 35 1 30 -2 37 -18 37 -16 0 -19 7 -19 41 0 35 -3 41
-18 37 -14 -4 -18 1 -19 21 -2 71 -4 81 -14 81 -6 0 -9 -7 -5 -15 3 -8 1 -15
-3 -15 -5 0 -12 18 -16 39 -6 39 -29 61 -38 38 -3 -7 -3 7 -2 31 2 28 -1 42
-8 39 -16 -5 -35 15 -29 31 2 8 -4 16 -17 19 -12 3 -20 10 -19 17 4 22 -13 55
-27 50 -8 -4 -15 3 -17 18 -2 13 -9 22 -16 20 -7 -1 -17 9 -22 23 -5 14 -13
25 -17 24 -5 -1 -14 -1 -22 0 -11 1 -11 4 0 18 13 15 12 16 -8 11 -18 -5 -23
-2 -23 13 0 19 -33 43 -44 31 -4 -3 -4 1 -1 10 4 9 2 19 -4 23 -6 3 -11 -1
-11 -9 0 -9 -4 -16 -10 -16 -5 0 -7 6 -4 14 3 8 0 17 -5 21 -6 3 -8 11 -5 17
4 7 2 8 -5 4 -9 -6 -9 -11 1 -23 12 -15 11 -15 -9 -3 -16 10 -19 18 -12 26 8
9 4 12 -15 10 -24 -3 -30 3 -27 29 0 6 -17 9 -39 9 -22 -1 -40 2 -40 7 0 5 6
9 13 9 8 0 7 4 -3 10 -8 5 -29 10 -47 10 -17 0 -35 5 -38 10 -3 6 0 10 7 10
10 0 9 3 -2 10 -16 10 -33 -7 -23 -24 3 -5 1 -6 -5 -2 -6 4 -9 13 -5 21 4 12
-4 15 -36 15 -23 0 -41 5 -41 11 0 5 4 8 9 4 5 -3 12 -1 15 4 4 5 -2 8 -11 6
-10 -1 -24 2 -30 8 -9 6 -13 6 -13 -2 0 -8 -6 -9 -17 -3 -10 4 -30 8 -45 7
-17 0 -28 4 -28 12 0 7 -4 13 -10 13 -5 0 -7 -6 -4 -14 4 -10 0 -13 -13 -11
-10 2 -24 4 -30 4 -7 1 -13 6 -13 11 0 7 6 7 18 1 14 -7 19 -6 19 3 0 7 -10
12 -21 11 -12 0 -31 2 -43 7 -14 4 -23 4 -23 -2 0 -9 14 -14 33 -11 4 0 7 -3
7 -8 0 -5 -11 -8 -25 -8 -14 0 -23 2 -21 5 3 3 1 11 -5 18 -8 10 -16 11 -31 3
-13 -7 -23 -7 -32 0 -7 6 -16 8 -19 4 -9 -8 -164 -10 -205 -2 -17 4 -35 3 -38
-2 -3 -5 -13 -5 -24 1 -13 7 -21 7 -25 0z m56 -7 c8 6 7 4 -2 -6 -8 -9 -25
-19 -36 -21 -19 -4 -22 2 -14 32 1 1 9 -2 19 -7 13 -7 23 -6 33 2z m-501 -413
c0 -5 -5 -10 -11 -10 -5 0 -7 5 -4 10 3 6 8 10 11 10 2 0 4 -4 4 -10z m1620
-16 c0 -8 -19 -13 -24 -6 -3 5 1 9 9 9 8 0 15 -2 15 -3z m-1329 -607 c-10 -9
-11 -8 -5 6 3 10 9 15 12 12 3 -3 0 -11 -7 -18z"/>
<path d="M4906 1048 c3 -5 10 -6 15 -3 13 9 11 12 -6 12 -8 0 -12 -4 -9 -9z"/>
<path d="M160 1014 c0 -8 5 -12 10 -9 6 4 8 11 5 16 -9 14 -15 11 -15 -7z"/>
<path d="M4940 981 c0 -6 4 -13 10 -16 6 -3 7 1 4 9 -7 18 -14 21 -14 7z"/>
<path d="M3220 975 c0 -2 6 -8 13 -14 10 -8 14 -7 14 2 0 8 -6 14 -14 14 -7 0
-13 -1 -13 -2z"/>
<path d="M5020 761 c0 -6 4 -13 10 -16 6 -3 7 1 4 9 -7 18 -14 21 -14 7z"/>
<path d="M5063 635 c0 -8 4 -12 9 -9 5 3 6 10 3 15 -9 13 -12 11 -12 -6z"/>
<path d="M1610 619 c0 -5 5 -7 10 -4 6 3 10 8 10 11 0 2 -4 4 -10 4 -5 0 -10
-5 -10 -11z"/>
<path d="M5101 444 c0 -11 3 -14 6 -6 3 7 2 16 -1 19 -3 4 -6 -2 -5 -13z"/>
<path d="M4988 392 c4 -10 7 -12 10 -4 2 7 9 9 15 5 7 -3 8 -2 4 2 -14 16 -36
14 -29 -3z"/>
<path d="M230 358 c0 -4 7 -8 15 -8 8 0 15 4 15 8 0 5 -7 9 -15 9 -8 0 -15 -4
-15 -9z"/>
<path d="M1016 331 c-4 -7 -5 -15 -2 -18 9 -9 19 4 14 18 -4 11 -6 11 -12 0z"/>
<path d="M465 320 c-3 -5 -2 -10 4 -10 5 0 13 5 16 10 3 6 2 10 -4 10 -5 0
-13 -4 -16 -10z"/>
<path d="M4020 320 c0 -3 16 -7 35 -8 19 -2 35 1 35 6 0 5 -16 9 -35 9 -19 0
-35 -3 -35 -7z"/>
<path d="M4690 320 c0 -5 5 -10 10 -10 6 0 10 5 10 10 0 6 -4 10 -10 10 -5 0
-10 -4 -10 -10z"/>
</g>
</svg>
